<svg width="41" height="42" viewBox="0 0 41 42" fill="none" xmlns="http://www.w3.org/2000/svg">
<path d="M24.5591 39.901H24.5181C24.3951 39.901 24.3131 39.819 24.3131 39.696C24.3131 38.589 23.4111 37.687 22.3041 37.687C22.1811 37.687 22.0991 37.605 22.0991 37.482V37.441C22.0991 37.318 22.1811 37.236 22.3041 37.236C23.4111 37.236 24.3131 36.334 24.3131 35.227C24.3131 35.104 24.3951 35.022 24.5181 35.022H24.5591C24.6821 35.022 24.7641 35.104 24.7641 35.227C24.7641 36.334 25.6661 37.236 26.7731 37.236C26.8961 37.236 26.9781 37.318 26.9781 37.441V37.482C26.9781 37.605 26.8961 37.687 26.7731 37.687C25.6661 37.687 24.7641 38.589 24.7641 39.696C24.7641 39.819 24.6821 39.901 24.5591 39.901ZM23.1651 37.441C23.7801 37.687 24.2721 38.179 24.5181 38.794C24.7641 38.179 25.2561 37.687 25.8711 37.441C25.2561 37.195 24.7641 36.703 24.5181 36.088C24.2721 36.703 23.7801 37.195 23.1651 37.441ZM5.20705 22.558H5.12505C5.00205 22.558 4.92005 22.476 4.92005 22.353C4.92005 22.23 4.92005 22.148 4.87905 22.066V21.984C4.87905 21.902 4.83805 21.82 4.83805 21.738L5.00205 21.615L4.79705 21.656C4.75605 21.574 4.75605 21.492 4.71505 21.369L4.87905 21.246L4.67405 21.328C4.63305 21.246 4.59205 21.164 4.55105 21.123L4.51005 21.041C4.46905 20.959 4.42805 20.918 4.38705 20.836L4.51005 20.672L4.34605 20.795C4.30505 20.713 4.22305 20.631 4.14105 20.59L4.22305 20.385L4.18205 20.59C4.14105 20.549 4.05905 20.508 4.01805 20.426L3.97705 20.385C3.89505 20.344 3.81305 20.262 3.73105 20.221C3.36205 20.016 2.99305 19.934 2.58305 19.934C2.46005 19.934 2.37805 19.852 2.37805 19.729V19.647C2.37805 19.524 2.46005 19.442 2.58305 19.442C3.89505 19.442 5.00205 18.376 5.00205 17.023C5.00205 16.9 5.08405 16.818 5.20705 16.818H5.28905C5.41205 16.818 5.49405 16.9 5.49405 17.023C5.49405 17.474 5.61705 17.884 5.82205 18.253C5.98605 18.499 6.19105 18.745 6.43705 18.909C6.51905 18.991 6.60105 19.032 6.68305 19.073C6.88805 19.196 7.05205 19.278 7.25705 19.319H7.29805C7.38005 19.36 7.46205 19.36 7.54405 19.36H7.62605C7.70805 19.36 7.83105 19.36 7.91305 19.36C8.03605 19.36 8.11805 19.442 8.11805 19.565V19.77C8.11805 19.893 8.03605 19.975 7.91305 19.975C6.60105 19.975 5.49405 21.041 5.49405 22.394C5.41205 22.476 5.33005 22.558 5.20705 22.558ZM3.52605 19.729C3.64905 19.77 3.77205 19.852 3.89505 19.893C3.97705 19.934 4.10005 20.016 4.18205 20.057L4.26405 20.098C4.34605 20.139 4.38705 20.221 4.46905 20.262L4.51005 20.303C4.59205 20.385 4.67405 20.467 4.75605 20.549L4.79705 20.59C4.87905 20.672 4.92005 20.754 4.96105 20.836C4.96105 20.877 5.00205 20.877 5.00205 20.918C5.04305 21 5.08405 21.082 5.12505 21.164L5.16605 21.205C5.20705 21.246 5.20705 21.287 5.20705 21.369C5.49405 20.59 6.10905 19.975 6.88805 19.688C6.72405 19.647 6.60105 19.565 6.43705 19.483L6.39605 19.442C6.31405 19.401 6.23205 19.319 6.15005 19.278C5.82205 19.032 5.61705 18.786 5.41205 18.458C5.33005 18.294 5.24805 18.13 5.16605 17.966C4.92005 18.827 4.30505 19.442 3.52605 19.729ZM38.0891 17.105C37.3921 17.105 36.8591 16.531 36.8591 15.875C36.8591 15.178 37.4331 14.645 38.0891 14.645C38.7451 14.645 39.319 15.219 39.319 15.875C39.319 16.572 38.7451 17.105 38.0891 17.105ZM38.0891 15.219C37.7201 15.219 37.4331 15.506 37.4331 15.875C37.4331 16.244 37.7201 16.531 38.0891 16.531C38.458 16.531 38.745 16.244 38.745 15.875C38.745 15.506 38.458 15.219 38.0891 15.219ZM19.9671 35.145C19.2701 35.145 18.7371 34.571 18.7371 33.915C18.7371 33.218 19.3111 32.685 19.9671 32.685C20.6231 32.685 21.1971 33.259 21.1971 33.915C21.2381 34.571 20.6641 35.145 19.9671 35.145ZM19.9671 33.218C19.5981 33.218 19.3111 33.505 19.3111 33.874C19.3111 34.243 19.5981 34.53 19.9671 34.53C20.3361 34.53 20.6231 34.243 20.6231 33.874C20.6641 33.505 20.3361 33.218 19.9671 33.218ZM10.5781 20.467C10.4551 20.508 10.3321 20.426 10.2911 20.303L10.1271 19.811C10.0861 19.688 10.1681 19.565 10.2911 19.524C10.4141 19.483 10.5371 19.565 10.5781 19.688L10.7421 20.18C10.7831 20.303 10.7011 20.426 10.5781 20.467ZM11.1521 22.189C11.0291 22.23 10.9061 22.148 10.8651 22.025L10.6601 21.533C10.6191 21.41 10.7011 21.287 10.8241 21.246C10.9471 21.205 11.0701 21.287 11.1111 21.41L11.2751 21.902C11.3571 22.025 11.2751 22.148 11.1521 22.189ZM11.0701 20.713C11.0291 20.59 11.1111 20.467 11.2341 20.426L11.7261 20.262C11.8491 20.221 11.9721 20.303 12.0131 20.426C12.0541 20.549 11.9721 20.672 11.8491 20.713L11.3571 20.877C11.2341 20.918 11.1111 20.836 11.0701 20.713ZM9.34805 21.287C9.30705 21.164 9.38905 21.041 9.51205 21L10.0041 20.836C10.1271 20.795 10.2501 20.877 10.2911 21C10.3321 21.123 10.2501 21.246 10.1271 21.287L9.63505 21.451C9.55305 21.492 9.38905 21.41 9.34805 21.287Z" fill="black"/>
<path d="M10.701 21.041C10.8142 21.041 10.906 20.9492 10.906 20.836C10.906 20.7228 10.8142 20.631 10.701 20.631C10.5878 20.631 10.496 20.7228 10.496 20.836C10.496 20.9492 10.5878 21.041 10.701 21.041Z" fill="black"/>
<path d="M3.034 37.072C2.911 37.113 2.788 37.031 2.747 36.908L2.583 36.416C2.542 36.293 2.624 36.17 2.747 36.129C2.87 36.088 2.993 36.17 3.034 36.293L3.198 36.785C3.239 36.908 3.157 37.031 3.034 37.072ZM3.608 38.794C3.485 38.835 3.321 38.753 3.28 38.63L3.116 38.138C3.075 38.015 3.157 37.851 3.28 37.81C3.403 37.769 3.526 37.851 3.567 37.974L3.731 38.466C3.772 38.589 3.731 38.753 3.608 38.794ZM3.526 37.318C3.485 37.195 3.567 37.072 3.69 37.031L4.182 36.867C4.305 36.826 4.428 36.908 4.469 37.031C4.51 37.154 4.428 37.277 4.305 37.318L3.813 37.482C3.69 37.523 3.567 37.441 3.526 37.318ZM1.804 37.892C1.763 37.769 1.845 37.646 1.968 37.605L2.46 37.441C2.583 37.4 2.706 37.482 2.747 37.605C2.788 37.728 2.706 37.851 2.583 37.892L2.091 38.056C2.009 38.097 1.845 38.015 1.804 37.892Z" fill="black"/>
<path d="M3.15703 37.646C3.27024 37.646 3.36203 37.5542 3.36203 37.441C3.36203 37.3278 3.27024 37.236 3.15703 37.236C3.04381 37.236 2.95203 37.3278 2.95203 37.441C2.95203 37.5542 3.04381 37.646 3.15703 37.646Z" fill="black"/>
<path d="M25.174 4.27199C25.051 4.31299 24.928 4.23099 24.887 4.10799L24.723 3.61599C24.682 3.49299 24.764 3.36999 24.887 3.32899C25.01 3.28799 25.133 3.36999 25.174 3.49299L25.338 3.98499C25.379 4.10799 25.297 4.23099 25.174 4.27199ZM25.748 5.99399C25.625 6.03499 25.502 5.95299 25.461 5.82999L25.297 5.33799C25.256 5.21499 25.338 5.09199 25.461 5.05099C25.584 5.00999 25.707 5.09199 25.748 5.21499L25.912 5.70699C25.953 5.82999 25.871 5.95299 25.748 5.99399ZM25.666 4.51799C25.625 4.39499 25.707 4.27199 25.83 4.23099L26.322 4.06699C26.445 4.02599 26.609 4.06699 26.65 4.18999C26.691 4.31299 26.609 4.43599 26.486 4.47699L25.994 4.64099C25.871 4.72299 25.707 4.64099 25.666 4.51799ZM23.985 5.09199C23.944 4.96899 24.026 4.84599 24.149 4.80499L24.641 4.64099C24.764 4.59999 24.887 4.68199 24.928 4.80499C24.969 4.92799 24.887 5.05099 24.764 5.09199L24.272 5.25599C24.149 5.29699 24.026 5.21499 23.985 5.09199Z" fill="black"/>
<path d="M25.297 4.846C25.4103 4.846 25.502 4.75422 25.502 4.641C25.502 4.52779 25.4103 4.436 25.297 4.436C25.1838 4.436 25.092 4.52779 25.092 4.641C25.092 4.75422 25.1838 4.846 25.297 4.846Z" fill="black"/>
<path d="M35.9159 11.775C37.1049 10.422 39.1549 7.757 39.6059 6.035C39.8109 4.641 40.8359 3.165 39.6059 1.935C39.0729 1.402 38.3349 1.197 37.6379 1.402L35.5059 1.935C33.7839 2.386 31.1189 4.436 29.7659 5.625C28.0439 7.101 25.4199 9.684 24.7639 10.176C24.4359 10.422 24.1899 10.463 24.1079 10.463C23.9439 10.422 22.4679 10.176 20.4179 9.848L20.7459 9.52C21.1969 9.069 21.1969 8.29 20.7459 7.839L18.9009 5.994C18.4499 5.543 17.6709 5.543 17.2199 5.994L14.3499 8.741C13.4889 8.577 12.6279 8.454 11.8079 8.29L11.8489 8.249C12.2999 7.798 12.2999 7.019 11.8489 6.568L10.0039 4.723C9.55294 4.272 8.77394 4.272 8.32294 4.723L5.82194 7.224C5.24794 7.101 4.83794 7.019 4.67394 6.978C3.40294 6.65 2.41894 6.978 1.59894 8.044C1.47594 8.208 1.35294 8.372 1.31194 8.577C0.901943 9.602 1.22994 10.709 2.13194 11.201C5.16594 13.005 11.9309 16.859 15.8669 19.196C15.9079 19.237 16.0309 19.278 16.1129 19.36C16.1129 19.36 16.1129 19.36 16.1129 19.401C14.1449 21.656 11.8079 24.444 10.7009 25.797C10.4139 26.125 10.2089 26.248 9.79894 26.207C9.01994 26.125 3.56694 25.633 2.74694 25.633C1.96794 25.633 1.27094 26.084 1.02494 26.74V26.781C0.573943 28.175 1.22994 28.831 1.63994 29.118C2.45994 29.651 3.27994 30.184 4.05894 30.717C4.42794 30.963 6.02694 31.988 6.84694 32.521L6.14994 33.177C5.53494 33.792 5.53494 34.735 6.14994 35.35C6.76494 35.965 7.70794 35.965 8.32294 35.35L8.97894 34.694C9.71694 35.801 11.5619 38.671 12.3819 39.901C12.5869 40.229 13.0379 40.68 13.8579 40.68C14.1039 40.68 14.3909 40.639 14.7189 40.516H14.7599C15.4159 40.27 15.8669 39.573 15.8669 38.794C15.8669 38.507 15.8669 38.22 15.8259 37.933C15.8259 37.769 15.4569 33.341 15.2929 31.742C15.2519 31.332 15.3339 31.127 15.7029 30.84C18.9829 28.093 21.8529 25.592 22.1399 25.428C22.1809 25.51 22.2629 25.633 22.3039 25.674C23.3699 27.478 24.3949 29.241 25.4199 31.045L27.5929 34.776C28.4539 36.293 29.3969 37.892 30.2989 39.409C30.8319 40.27 31.8979 40.639 32.9229 40.229C33.1279 40.147 33.2919 40.065 33.4559 39.942C34.5219 39.122 34.8499 38.179 34.5219 36.867C34.4399 36.498 34.3579 36.129 34.2759 35.719L36.7769 33.218C37.2279 32.767 37.2279 31.988 36.7769 31.537L34.9319 29.692C34.4809 29.241 33.7019 29.241 33.2509 29.692H33.2099C33.0459 28.872 32.9229 28.011 32.7589 27.15L35.5469 24.362C35.9979 23.911 35.9979 23.132 35.5469 22.681L33.7019 20.836C33.2509 20.385 32.4719 20.385 32.0209 20.836L31.6929 21.164C31.3649 19.196 31.1189 17.761 31.0779 17.474C31.0779 17.351 31.2009 16.982 31.5699 16.613C32.9639 14.973 34.4809 13.415 35.9159 11.775ZM17.7119 6.527C17.8349 6.404 18.0809 6.404 18.2449 6.527L20.0899 8.372C20.2129 8.495 20.2129 8.741 20.0899 8.905L19.3519 9.643C18.1219 9.438 16.7279 9.192 15.2929 8.946L17.7119 6.527ZM8.89694 5.297C9.01994 5.174 9.26594 5.174 9.42994 5.297L11.2749 7.142C11.4389 7.265 11.4389 7.511 11.2749 7.675L10.8239 8.126C9.30694 7.839 7.87194 7.593 6.80594 7.388L8.89694 5.297ZM2.25494 8.495C2.86994 7.716 3.48494 7.511 4.46894 7.757C5.86294 8.126 21.1969 10.791 23.6569 11.201C22.5089 12.349 20.6229 14.317 18.6549 16.449C16.5229 15.424 2.50094 8.618 2.25494 8.495ZM16.6459 18.745C16.5229 18.663 16.3999 18.581 16.2769 18.499C12.6689 16.367 5.28894 12.144 2.54194 10.504C2.09094 10.217 1.92694 9.766 1.96794 9.315C4.34594 10.463 16.3999 16.326 18.0809 17.146C17.6709 17.597 17.1379 18.13 16.6459 18.745ZM2.04994 28.421C1.92694 28.339 1.59894 28.093 1.63994 27.478L8.48694 30.799L7.37994 31.947C6.31394 31.209 3.23894 29.241 2.04994 28.421ZM7.74894 34.735C7.46194 35.022 7.01094 35.022 6.72394 34.735C6.43694 34.448 6.43694 33.997 6.72394 33.71L14.5959 25.92C14.8829 25.633 15.3339 25.633 15.6209 25.92C15.9079 26.207 15.9079 26.658 15.6209 26.945L7.74894 34.735ZM13.0789 39.45C12.5459 38.63 10.2909 35.186 9.59394 34.12L10.7009 33.013L14.0219 39.86C13.3659 39.901 13.1609 39.573 13.0789 39.45ZM15.2109 30.184C14.6779 30.635 14.4729 31.127 14.5139 31.783C14.6369 33.259 15.0469 37.769 15.0469 37.933C15.0469 38.22 15.0879 38.466 15.0879 38.753C15.0879 39.04 14.9649 39.327 14.8009 39.532L11.3569 32.357L16.2359 27.478C16.8509 26.863 16.8509 25.92 16.2359 25.305C15.6619 24.731 14.6369 24.731 14.0629 25.305L9.14294 30.184L1.96794 26.74C2.17294 26.576 2.41894 26.453 2.74694 26.453C3.60794 26.453 9.01994 26.945 9.71694 27.027C10.3729 27.109 10.8649 26.863 11.3159 26.33C17.7529 18.54 21.1969 14.85 25.2559 10.791C25.9119 10.258 28.5359 7.757 30.2579 6.24C31.4879 5.133 34.1119 3.165 35.6699 2.755L37.8019 2.222C38.2529 2.099 38.7039 2.222 38.9909 2.55C39.7699 3.329 39.0729 4.231 38.8269 5.707L38.7859 5.83C38.3759 7.388 36.3669 10.012 35.3009 11.242C31.4059 15.67 28.3719 18.663 24.3129 22.394C24.2719 22.435 24.2309 22.476 24.1899 22.517C21.6889 24.813 18.1219 27.765 15.2109 30.184ZM30.9959 38.958C28.9049 35.432 23.0419 25.223 22.7549 24.854C22.8369 24.813 22.8779 24.731 22.9599 24.69C23.4519 24.28 23.9029 23.87 24.3949 23.419C26.4859 27.724 30.3809 35.719 32.2259 39.532C31.7749 39.573 31.2829 39.409 30.9959 38.958ZM33.8249 30.225C33.9479 30.102 34.1939 30.061 34.3579 30.225L36.2029 32.07C36.3669 32.193 36.3669 32.439 36.2029 32.603L34.1119 34.694C33.9479 33.833 33.7019 32.398 33.3739 30.676L33.8249 30.225ZM32.5949 21.41C32.7179 21.287 32.9639 21.287 33.1279 21.41L34.9729 23.255C35.0959 23.378 35.0959 23.624 34.9729 23.788L32.5949 26.166C32.3489 24.772 32.1029 23.378 31.8979 22.107L32.5949 21.41ZM33.4559 35.637C33.5379 36.129 33.6609 36.621 33.7839 37.031C34.0299 37.974 33.8249 38.63 33.0459 39.245C30.8319 34.694 26.1989 25.141 25.0919 22.845C27.2649 20.836 29.2329 18.95 30.3399 17.802C30.6679 20.344 33.4149 35.596 33.4559 35.637Z" fill="black"/>
</svg>
