<svg width="53" height="54" viewBox="0 0 53 54" fill="none" xmlns="http://www.w3.org/2000/svg">
<g clip-path="url(#clip0_15_425)">
<path d="M9.92275 36.9457L9.90951 36.9069C9.86979 36.7905 9.92091 36.6864 10.0373 36.6467C11.085 36.2892 11.6474 35.1442 11.2898 34.0965C11.2501 33.9801 11.3012 33.876 11.4177 33.8363L11.4565 33.823C11.5729 33.7833 11.677 33.8344 11.7167 33.9509C12.0742 34.9985 13.2192 35.5609 14.2668 35.2034C14.3833 35.1637 14.4873 35.2148 14.5271 35.3312L14.5403 35.37C14.58 35.4864 14.5289 35.5905 14.4125 35.6302C13.3648 35.9877 12.8025 37.1327 13.16 38.1804C13.1997 38.2968 13.1486 38.4009 13.0322 38.4406L12.9934 38.4538C12.877 38.4936 12.7729 38.4424 12.7331 38.326C12.3756 37.2784 11.2307 36.716 10.183 37.0735C10.0666 37.1132 9.96248 37.0621 9.92275 36.9457ZM11.8007 34.8319C11.7665 35.4934 11.4598 36.1179 10.9572 36.5494C11.6187 36.5836 12.2432 36.8903 12.6746 37.3929C12.7088 36.7314 13.0156 36.1069 13.5182 35.6755C12.8567 35.6413 12.2322 35.3345 11.8007 34.8319ZM20.0865 13.0297L20.0601 12.952C20.0203 12.8356 20.0715 12.7316 20.1879 12.6918C20.3043 12.6521 20.3819 12.6256 20.4462 12.5603L20.5239 12.5339C20.6015 12.5074 20.6658 12.4421 20.7434 12.4156L20.9128 12.5311L20.8078 12.3503C20.8722 12.285 20.9498 12.2586 21.0529 12.18L21.2223 12.2955L21.0785 12.128C21.1429 12.0627 21.2072 11.9974 21.2328 11.9454L21.2971 11.8801C21.3615 11.8148 21.3871 11.7627 21.4514 11.6975L21.6464 11.7609L21.477 11.6454C21.5414 11.5801 21.5925 11.476 21.6048 11.3852L21.8253 11.3966L21.6181 11.424C21.6436 11.372 21.6559 11.2811 21.7203 11.2158L21.7459 11.1638C21.7582 11.0729 21.8093 10.9688 21.8216 10.878C21.8965 10.4626 21.8549 10.0869 21.7225 9.69883C21.6828 9.58242 21.7339 9.47833 21.8503 9.43861L21.9279 9.41212C22.0443 9.3724 22.1484 9.42352 22.1881 9.53993C22.6118 10.7816 23.9782 11.485 25.2587 11.0481C25.3751 11.0083 25.4792 11.0595 25.519 11.1759L25.5454 11.2535C25.5852 11.3699 25.534 11.474 25.4176 11.5137C24.9908 11.6594 24.6425 11.9082 24.3595 12.2214C24.1796 12.456 24.013 12.7295 23.9372 13.0153C23.8861 13.1194 23.8738 13.2102 23.8615 13.3011C23.8113 13.5348 23.7866 13.7165 23.814 13.9237L23.8273 13.9625C23.815 14.0534 23.8414 14.131 23.8679 14.2086L23.8944 14.2862C23.9209 14.3638 23.9606 14.4802 23.9871 14.5578C24.0268 14.6742 23.9757 14.7783 23.8593 14.8181L23.6653 14.8843C23.5489 14.924 23.4448 14.8729 23.405 14.7565C22.9813 13.5148 21.6149 12.8114 20.3344 13.2483C20.2304 13.1972 20.1263 13.1461 20.0865 13.0297ZM22.2211 10.5251C22.222 10.6547 22.1841 10.7976 22.185 10.9273C22.1727 11.0181 22.1348 11.161 22.1225 11.2519L22.1102 11.3427C22.0978 11.4336 22.0335 11.4988 22.0212 11.5897L21.9956 11.6417C21.9445 11.7458 21.8934 11.8499 21.8422 11.954L21.8167 12.006C21.7655 12.1101 21.7012 12.1754 21.6368 12.2407C21.598 12.2539 21.6113 12.2927 21.5725 12.306C21.5081 12.3713 21.4437 12.4366 21.3794 12.5018L21.3538 12.5539C21.3282 12.6059 21.2894 12.6192 21.2118 12.6457C22.0418 12.6657 22.8224 13.0491 23.3456 13.6937C23.3315 13.5252 23.3694 13.3823 23.394 13.2007L23.4196 13.1486C23.4319 13.0578 23.483 12.9537 23.4953 12.8628C23.6222 12.473 23.7888 12.1995 24.033 11.8995C24.1618 11.769 24.2905 11.6384 24.4192 11.5078C23.5249 11.5531 22.7443 11.1697 22.2211 10.5251ZM35.8668 42.3885C35.6417 41.7289 36.0128 41.0391 36.6337 40.8272C37.2933 40.6021 37.9831 40.9732 38.195 41.5941C38.4068 42.2149 38.049 42.9435 37.4281 43.1554C36.7685 43.3805 36.0787 43.0094 35.8668 42.3885ZM37.6517 41.7794C37.5326 41.4302 37.1683 41.2513 36.819 41.3705C36.4698 41.4896 36.2909 41.8539 36.4101 42.2032C36.5292 42.5524 36.8935 42.7313 37.2428 42.6122C37.592 42.493 37.7709 42.1287 37.6517 41.7794ZM12.9409 31.0638C12.7158 30.4041 13.0869 29.7143 13.7077 29.5025C14.3674 29.2774 15.0572 29.6485 15.2691 30.2693C15.4809 30.8902 15.1231 31.6188 14.5022 31.8306C13.8946 32.0813 13.166 31.7234 12.9409 31.0638ZM14.7646 30.4414C14.6454 30.0922 14.2811 29.9133 13.9319 30.0325C13.5827 30.1516 13.4037 30.5159 13.5229 30.8652C13.6421 31.2144 14.0064 31.3933 14.3556 31.2742C14.7181 31.1938 14.8838 30.7907 14.7646 30.4414ZM23.8001 17.4375C23.7216 17.3344 23.7594 17.1915 23.8626 17.113L24.2753 16.7988C24.3785 16.7203 24.5213 16.7582 24.5999 16.8614C24.6784 16.9645 24.6405 17.1074 24.5373 17.186L24.1247 17.5001C24.0215 17.5786 23.8786 17.5407 23.8001 17.4375ZM22.3557 18.5369C22.2772 18.4337 22.3151 18.2909 22.4183 18.2123L22.8177 17.8594C22.9209 17.7809 23.0638 17.8188 23.1423 17.9219C23.2208 18.0251 23.1829 18.168 23.0798 18.2465L22.6671 18.5606C22.5772 18.678 22.4343 18.6401 22.3557 18.5369ZM23.7262 17.9826C23.8293 17.9041 23.9722 17.942 24.0508 18.0451L24.3649 18.4578C24.4434 18.561 24.4055 18.7039 24.3023 18.7824C24.1992 18.8609 24.0563 18.823 23.9778 18.7199L23.6636 18.3072C23.5851 18.204 23.623 18.0611 23.7262 17.9826ZM22.6268 16.5383C22.73 16.4597 22.8729 16.4976 22.9514 16.6008L23.2655 17.0135C23.344 17.1166 23.3061 17.2595 23.203 17.3381C23.0998 17.4166 22.9569 17.3787 22.8784 17.2755L22.5643 16.8629C22.499 16.7985 22.5236 16.6168 22.6268 16.5383Z" fill="black"/>
<path d="M23.2966 17.7393C23.3331 17.8465 23.4497 17.9037 23.5568 17.8671C23.664 17.8306 23.7212 17.7141 23.6846 17.6069C23.648 17.4998 23.5315 17.4425 23.4244 17.4791C23.3172 17.5157 23.26 17.6322 23.2966 17.7393Z" fill="black"/>
<path d="M5.64851 15.6605C5.56999 15.5574 5.60787 15.4145 5.71103 15.3359L6.12371 15.0218C6.22687 14.9433 6.36976 14.9812 6.44829 15.0844C6.52682 15.1875 6.48893 15.3304 6.38577 15.4089L5.9731 15.723C5.86993 15.8016 5.72704 15.7637 5.64851 15.6605ZM4.20416 16.7599C4.12564 16.6567 4.15028 16.475 4.25345 16.3965L4.66612 16.0824C4.76928 16.0039 4.95098 16.0285 5.02951 16.1317C5.10803 16.2348 5.07015 16.3777 4.96698 16.4563L4.55431 16.7704C4.45114 16.8489 4.28269 16.8631 4.20416 16.7599ZM5.57459 16.2056C5.67775 16.1271 5.82065 16.165 5.89917 16.2681L6.21328 16.6808C6.29181 16.784 6.25393 16.9269 6.15076 17.0054C6.04759 17.0839 5.9047 17.046 5.82617 16.9429L5.51207 16.5302C5.43354 16.427 5.47142 16.2841 5.57459 16.2056ZM4.47522 14.7613C4.57838 14.6827 4.72127 14.7206 4.7998 14.8238L5.11391 15.2364C5.19243 15.3396 5.15455 15.4825 5.05138 15.561C4.94822 15.6396 4.80533 15.6017 4.7268 15.4985L4.41269 15.0858C4.34741 15.0215 4.37205 14.8398 4.47522 14.7613Z" fill="black"/>
<path d="M5.14497 15.9623C5.18154 16.0694 5.29804 16.1267 5.40519 16.0901C5.51235 16.0535 5.56957 15.937 5.533 15.8299C5.49644 15.7227 5.37993 15.6655 5.27278 15.7021C5.16563 15.7386 5.10841 15.8551 5.14497 15.9623Z" fill="black"/>
<path d="M43.8411 26.0211C43.7626 25.918 43.8004 25.7751 43.9036 25.6965L44.3163 25.3824C44.4194 25.3039 44.5623 25.3418 44.6409 25.445C44.7194 25.5481 44.6815 25.691 44.5783 25.7695L44.1657 26.0837C44.0625 26.1622 43.9196 26.1243 43.8411 26.0211ZM42.3967 27.1205C42.3182 27.0173 42.3561 26.8744 42.4593 26.7959L42.8719 26.4818C42.9751 26.4033 43.118 26.4412 43.1965 26.5443C43.275 26.6475 43.2372 26.7904 43.134 26.8689L42.7213 27.183C42.6182 27.2616 42.4753 27.2237 42.3967 27.1205ZM43.7672 26.5662C43.8703 26.4877 44.0132 26.5256 44.0917 26.6287L44.4058 27.0414C44.4844 27.1446 44.4985 27.313 44.3954 27.3916C44.2922 27.4701 44.1493 27.4322 44.0708 27.329L43.7567 26.9164C43.6393 26.8264 43.664 26.6447 43.7672 26.5662ZM42.681 25.1607C42.7842 25.0821 42.9271 25.12 43.0056 25.2232L43.3197 25.6359C43.3982 25.739 43.3604 25.8819 43.2572 25.9604C43.154 26.039 43.0111 26.0011 42.9326 25.8979L42.6185 25.4853C42.54 25.3821 42.5779 25.2392 42.681 25.1607Z" fill="black"/>
<path d="M43.3376 26.3229C43.3742 26.43 43.4907 26.4873 43.5978 26.4507C43.705 26.4141 43.7622 26.2976 43.7256 26.1905C43.6891 26.0833 43.5726 26.0261 43.4654 26.0627C43.3583 26.0992 43.301 26.2157 43.3376 26.3229Z" fill="black"/>
<path d="M40.2093 38.6107C41.8738 39.299 45.0581 40.3785 46.8335 40.2492C48.219 39.993 49.9469 40.4864 50.7138 38.925C51.0461 38.2485 51.0017 37.4838 50.5826 36.8904L49.3896 35.0447C48.4067 33.5607 45.6059 31.7005 44.0436 30.804C42.0906 29.651 38.7985 28.0018 38.121 27.5399C37.7823 27.3089 37.664 27.0893 37.6376 27.0117C37.6234 26.8432 37.3795 25.3669 37.0279 23.3208L37.4443 23.5253C38.0167 23.8065 38.754 23.5549 39.0352 22.9824L40.1854 20.6404C40.4666 20.0679 40.215 19.3307 39.6426 19.0495L36.1159 17.2205C35.993 16.3526 35.8314 15.498 35.7217 14.669L35.7738 14.6946C36.3463 14.9758 37.0835 14.7242 37.3647 14.1517L38.515 11.8097C38.7962 11.2372 38.5446 10.5 37.9721 10.2188L34.7974 8.65952C34.7284 8.07655 34.6736 7.66204 34.6595 7.49358C34.5594 6.18476 33.9312 5.35942 32.6575 4.92764C32.4626 4.86419 32.2676 4.80075 32.0604 4.82815C30.9579 4.77115 30.0161 5.43909 29.8418 6.45165C29.1143 9.90568 27.6517 17.5528 26.711 22.0327C26.6855 22.0847 26.6864 22.2144 26.6353 22.3185C26.6353 22.3185 26.6353 22.3185 26.5965 22.3317C23.8267 21.1974 20.4334 19.8861 18.7954 19.2754C18.3923 19.1097 18.2096 18.9554 18.116 18.5541C17.9421 17.7904 16.6466 12.4707 16.3818 11.6946C16.1302 10.9574 15.4783 10.4434 14.778 10.4224L14.7392 10.4356C13.2742 10.459 12.8652 11.2917 12.726 11.7724C12.4864 12.7206 12.2468 13.6688 11.9939 14.5782C11.8803 15.0069 11.4266 16.8512 11.187 17.7994L10.3411 17.3516C9.5604 16.9682 8.66793 17.2728 8.2845 18.0534C7.90108 18.8341 8.20563 19.7266 8.98629 20.11L9.819 20.519C9.00966 21.5749 6.88931 24.248 5.99005 25.4213C5.74583 25.7212 5.46465 26.2937 5.72948 27.0697C5.80892 27.3026 5.94041 27.5609 6.16275 27.8316L6.176 27.8704C6.62067 28.4118 7.42597 28.6136 8.16323 28.362C8.43485 28.2693 8.70647 28.1766 8.96485 28.0451C9.12006 27.9922 13.1916 26.2129 14.652 25.5413C15.0268 25.37 15.2472 25.3814 15.638 25.638C19.2971 27.8551 22.591 29.7635 22.8389 29.9822C22.7745 30.0475 22.6846 30.1648 22.6591 30.2169C21.296 31.8084 19.9585 33.3478 18.5822 34.9005L15.7529 38.162C14.5953 39.4668 13.3865 40.8757 12.2421 42.2193C11.5994 43.0018 11.5944 44.1298 12.3135 44.9675C12.4573 45.135 12.5879 45.2637 12.7572 45.3792C13.8776 46.1233 14.876 46.1291 16.0117 45.395C16.3345 45.1982 16.6572 45.0014 17.0188 44.7914L20.1935 46.3507C20.766 46.6319 21.5032 46.3803 21.7844 45.8078L22.9347 43.4658C23.2158 42.8933 22.9643 42.1561 22.3918 41.8749L22.3785 41.8361C23.1016 41.4161 23.8768 41.0216 24.6387 40.5883L28.1777 42.3265C28.7502 42.6077 29.4874 42.3561 29.7686 41.7836L30.9189 39.4416C31.2 38.8691 30.9485 38.1319 30.376 37.8507L29.9596 37.6462C31.7162 36.7002 32.9949 36.0039 33.2533 35.8724C33.3697 35.8327 33.7586 35.83 34.227 36.06C36.2293 36.8497 38.1938 37.7822 40.2093 38.6107ZM39.297 19.6873C39.4531 19.764 39.5326 19.9968 39.4692 20.1917L38.3189 22.5337C38.2422 22.6898 38.0094 22.7693 37.8144 22.7058L36.8776 22.2457C36.6744 21.0154 36.457 19.6167 36.2264 18.1791L39.297 19.6873ZM37.6142 10.9474C37.7704 11.0241 37.8498 11.2569 37.7864 11.4518L36.6361 13.7938C36.5727 13.9888 36.3398 14.0682 36.1317 13.966L35.5592 13.6848C35.3409 12.1564 35.1102 10.7188 34.96 9.64375L37.6142 10.9474ZM32.4425 5.69414C33.3784 6.0246 33.771 6.54044 33.856 7.55115C33.957 8.98963 36.387 24.3626 36.7935 26.8232C35.3362 26.1075 32.8646 24.9581 30.2112 23.7841C30.4928 21.4353 32.4056 5.96668 32.4425 5.69414ZM27.3895 22.6243C27.4273 22.4814 27.4652 22.3385 27.5031 22.1956C28.3556 18.0924 29.9689 9.74403 30.6339 6.61458C30.7598 6.09506 31.1337 5.79419 31.5738 5.68734C31.2553 8.30867 29.5994 21.6102 29.3662 23.466C28.807 23.2236 28.1304 22.8913 27.3895 22.6243ZM13.5181 11.9354C13.556 11.7925 13.6828 11.4026 14.2781 11.2428L13.3464 18.7954L11.9024 18.1185C12.2566 16.8713 13.126 13.3255 13.5181 11.9354ZM9.38296 19.3681C9.01865 19.1892 8.873 18.7624 9.05193 18.3981C9.23086 18.0337 9.65769 17.8881 10.022 18.067L19.9369 23.0014C20.3012 23.1803 20.4468 23.6071 20.2679 23.9714C20.089 24.3357 19.6621 24.4814 19.2978 24.3025L9.38296 19.3681ZM6.64198 25.9353C7.2459 25.166 9.77708 21.9196 10.5609 20.9156L11.9661 21.6058L6.5585 26.9601C6.30784 26.3525 6.55205 26.0526 6.64198 25.9353ZM16.1 24.9605C15.501 24.6017 14.9692 24.5666 14.3616 24.8172C13.0044 25.4103 8.86848 27.2549 8.71327 27.3079C8.44165 27.4006 8.22207 27.5188 7.95045 27.6115C7.67883 27.7042 7.36749 27.6805 7.12051 27.5915L12.7988 22.0148L18.992 25.0566C19.7727 25.4401 20.6651 25.1355 21.0486 24.3549C21.4064 23.6262 21.0754 22.6562 20.3468 22.2983L14.1403 19.2176L15.0825 11.3149C15.3039 11.4559 15.4998 11.649 15.6057 11.9594C15.8838 12.7743 17.166 18.0552 17.3135 18.7413C17.4477 19.3886 17.8395 19.7748 18.4896 20.0295C27.941 23.6058 32.5455 25.6735 37.6979 28.2041C38.4142 28.6528 41.6286 30.3285 43.6205 31.4683C45.0654 32.2749 47.7754 34.1227 48.6666 35.4648L49.8595 37.3104C50.1216 37.6975 50.1508 38.1641 49.9331 38.5416C49.4474 39.5304 48.3687 39.1621 46.8923 39.406L46.7627 39.4069C45.1557 39.522 42.0235 38.4681 40.5152 37.8565C35.0665 35.6003 31.2541 33.6954 26.4121 31.0589C26.3601 31.0333 26.308 31.0078 26.256 30.9822C23.2753 29.3568 19.3295 26.9343 16.1 24.9605ZM12.894 42.7333C15.5558 39.6156 23.3242 30.7697 23.5808 30.3789C23.646 30.4432 23.7369 30.4556 23.8022 30.5199C24.3491 30.8531 24.8828 31.1476 25.4685 31.4675C22.0695 34.8368 15.7609 41.1051 12.748 44.0827C12.5636 43.6691 12.5599 43.1505 12.894 42.7333ZM22.0727 42.5903C22.2288 42.667 22.3471 42.8865 22.2449 43.0947L21.0946 45.4367C21.0311 45.6316 20.7983 45.7111 20.5901 45.6088L17.9359 44.3052C18.6978 43.8719 19.9764 43.1756 21.5002 42.3091L22.0727 42.5903ZM30.0181 38.5793C30.1742 38.656 30.2537 38.8888 30.1902 39.0838L29.04 41.4257C28.9633 41.5819 28.7305 41.6613 28.5355 41.5979L25.517 40.1153C26.7568 39.4323 27.9967 38.7493 29.1334 38.1448L30.0181 38.5793ZM16.8316 43.9889C16.3924 44.2254 15.9665 44.5007 15.6182 44.7495C14.8052 45.2869 14.1181 45.3047 13.2845 44.7661C16.8766 41.201 24.4214 33.731 26.2369 31.9418C28.84 33.3496 31.2605 34.603 32.7045 35.2799C30.4047 36.4113 16.8571 43.9368 16.8316 43.9889Z" fill="black"/>
</g>
<defs>
<clipPath id="clip0_15_425">
<rect width="41" height="41" fill="white" transform="translate(39.2809 0.977905) rotate(71.1581)"/>
</clipPath>
</defs>
</svg>
